<?xml version="1.0" encoding="utf-8"?>
<!-- Generator: Adobe Illustrator 23.0.5, SVG Export Plug-In . SVG Version: 6.00 Build 0)  -->
<svg version="1.1" id="Capa_1" xmlns="http://www.w3.org/2000/svg" xmlns:xlink="http://www.w3.org/1999/xlink" x="0px" y="0px"
	 viewBox="0 0 32 32" style="enable-background:new 0 0 32 32;" xml:space="preserve">
<style type="text/css">
	.st0{fill:#FFFFFF;}
</style>
<g>
	<g>
		<path class="st0" d="M16,0C7.2,0,0,7.2,0,16c0,8.8,7.2,16,16,16c8.8,0,16-7.2,16-16C32,7.2,24.8,0,16,0z M16,29.5
			c-7.5,0-13.5-6-13.5-13.5c0-7.5,6-13.5,13.5-13.5c7.5,0,13.5,6,13.5,13.5C29.5,23.5,23.5,29.5,16,29.5z"/>
	</g>
</g>
<g>
	<g>
		<path class="st0" d="M22.7,20.5L18.2,16l4.5-4.5c0.6-0.6,0.6-1.6,0-2.2c-0.6-0.6-1.6-0.6-2.2,0L16,13.8l-4.5-4.5
			c-0.6-0.6-1.6-0.6-2.2,0c-0.6,0.6-0.6,1.6,0,2.2l4.5,4.5l-4.5,4.5c-0.6,0.6-0.6,1.6,0,2.2c0.6,0.6,1.6,0.6,2.2,0l4.5-4.5l4.5,4.5
			c0.6,0.6,1.6,0.6,2.2,0S23.3,21.1,22.7,20.5z"/>
	</g>
</g>
</svg>
