<?xml version="1.0" encoding="utf-8"?>
<!-- Generator: Adobe Illustrator 23.0.5, SVG Export Plug-In . SVG Version: 6.00 Build 0)  -->
<svg version="1.1" id="Capa_1" xmlns="http://www.w3.org/2000/svg" xmlns:xlink="http://www.w3.org/1999/xlink" x="0px" y="0px"
	 viewBox="0 0 300 300" style="enable-background:new 0 0 300 300;" xml:space="preserve">
<style type="text/css">
	.st0{fill:url(#SVGID_1_);}
	.st1{fill:#812D30;}
	.st2{opacity:0.3;}
	.st3{fill:#1F1E21;}
	.st4{fill:#FFFFFF;}
	.st5{fill:url(#SVGID_2_);}
</style>
<linearGradient id="SVGID_1_" gradientUnits="userSpaceOnUse" x1="103.1329" y1="90.4207" x2="108.2118" y2="129.3587">
	<stop  offset="0" style="stop-color:#64292E"/>
	<stop  offset="1" style="stop-color:#812D30"/>
</linearGradient>
<path class="st0" d="M114.3,94.8c-44.9,0-81.2,36.4-81.2,81.2c0,44.9,36.4,81.2,81.2,81.2c44.9,0,81.2-36.4,81.2-81.2
	C195.5,131.1,159.2,94.8,114.3,94.8z M114.3,228.8c-29.2,0-52.8-23.6-52.8-52.8c0-29.2,23.6-52.8,52.8-52.8
	c29.2,0,52.8,23.6,52.8,52.8C167.1,205.2,143.5,228.8,114.3,228.8z"/>
<rect x="27.4" y="73.8" transform="matrix(0.5735 -0.8192 0.8192 0.5735 -31.8949 114.8188)" class="st1" width="133.8" height="28.4"/>
<g class="st2">
	<path class="st3" d="M159.2,148.2c5.8-7.6,14-13.3,23.4-16.1c-4.8-7.4-10.8-14-17.6-19.6c-9.1,4.4-17,10.6-23.4,18.2
		C148.7,135.1,154.8,141.1,159.2,148.2z"/>
	<path class="st3" d="M159.2,203.8c-4.4,7.1-10.5,13.1-17.6,17.4c6.4,7.6,14.4,13.9,23.4,18.2c6.9-5.5,12.8-12.1,17.6-19.6
		C173.2,217.1,165,211.4,159.2,203.8z"/>
</g>
<g>
	<path class="st4" d="M195.5,259.5c-46.1,0-83.5-37.5-83.5-83.5c0-46.1,37.5-83.5,83.5-83.5c46.1,0,83.5,37.5,83.5,83.5
		C279.1,222.1,241.6,259.5,195.5,259.5L195.5,259.5z M195.5,97c-43.5,0-79,35.4-79,79c0,43.5,35.4,79,79,79c43.5,0,79-35.4,79-79
		C274.5,132.5,239.1,97,195.5,97L195.5,97z M195.5,231.1c-30.4,0-55.1-24.7-55.1-55.1c0-30.4,24.7-55.1,55.1-55.1
		c30.4,0,55.1,24.7,55.1,55.1C250.6,206.4,225.9,231.1,195.5,231.1L195.5,231.1z M195.5,125.5c-27.9,0-50.5,22.7-50.5,50.5
		c0,27.9,22.7,50.5,50.5,50.5c27.9,0,50.5-22.7,50.5-50.5C246.1,148.1,223.4,125.5,195.5,125.5L195.5,125.5z"/>
</g>
<linearGradient id="SVGID_2_" gradientUnits="userSpaceOnUse" x1="178.2614" y1="116.5782" x2="223.7701" y2="273.1284">
	<stop  offset="5.618000e-03" style="stop-color:#B79138"/>
	<stop  offset="7.224182e-02" style="stop-color:#BB973D"/>
	<stop  offset="0.1647" style="stop-color:#C8A94C"/>
	<stop  offset="0.1879" style="stop-color:#CCAF51"/>
	<stop  offset="0.2909" style="stop-color:#F7E67B"/>
	<stop  offset="0.4606" style="stop-color:#B79138"/>
	<stop  offset="0.4606" style="stop-color:#957533"/>
	<stop  offset="0.703" style="stop-color:#CCAF51"/>
	<stop  offset="0.9939" style="stop-color:#F7E67B"/>
</linearGradient>
<path class="st5" d="M195.5,94.8c-44.9,0-81.2,36.4-81.2,81.2c0,44.9,36.4,81.2,81.2,81.2c44.9,0,81.2-36.4,81.2-81.2
	C276.8,131.1,240.4,94.8,195.5,94.8z M195.5,228.8c-29.2,0-52.8-23.6-52.8-52.8c0-29.2,23.6-52.8,52.8-52.8
	c29.2,0,52.8,23.6,52.8,52.8C248.3,205.2,224.7,228.8,195.5,228.8z"/>
</svg>
