<?xml version="1.0" encoding="utf-8"?>
<!-- Generator: Adobe Illustrator 23.0.5, SVG Export Plug-In . SVG Version: 6.00 Build 0)  -->
<svg version="1.1" id="Capa_1" xmlns="http://www.w3.org/2000/svg" xmlns:xlink="http://www.w3.org/1999/xlink" x="0px" y="0px"
	 viewBox="0 0 300 300" style="enable-background:new 0 0 300 300;" xml:space="preserve">
<style type="text/css">
	.st0{fill:url(#SVGID_1_);}
	.st1{opacity:0.3;}
	.st2{fill:#1F1E21;}
	.st3{fill:url(#SVGID_2_);}
	.st4{fill:#812D30;}
</style>
<linearGradient id="SVGID_1_" gradientUnits="userSpaceOnUse" x1="93.4647" y1="87.6492" x2="99.035" y2="130.3546">
	<stop  offset="0" style="stop-color:#64292E"/>
	<stop  offset="1" style="stop-color:#812D30"/>
</linearGradient>
<path class="st0" d="M105.71,92.41c-49.21,0-89.1,39.89-89.1,89.1c0,49.21,39.89,89.1,89.1,89.1c49.21,0,89.1-39.89,89.1-89.1
	C194.81,132.31,154.92,92.41,105.71,92.41z M105.71,239.42c-31.98,0-57.91-25.92-57.91-57.91c0-31.98,25.93-57.91,57.91-57.91
	c31.98,0,57.91,25.93,57.91,57.91C163.62,213.5,137.69,239.42,105.71,239.42z"/>
<g class="st1">
	<path class="st2" d="M154.95,151.04c6.4-8.36,15.36-14.64,25.72-17.68c-5.25-8.16-11.79-15.4-19.35-21.45
		c-9.93,4.79-18.67,11.65-25.69,20.01C143.49,136.68,150.11,143.25,154.95,151.04z"/>
	<path class="st2" d="M154.95,211.99c-4.84,7.8-11.46,14.36-19.32,19.11c7.01,8.36,15.75,15.22,25.69,20.01
		c7.55-6.04,14.09-13.29,19.35-21.45C170.31,226.62,161.35,220.34,154.95,211.99z"/>
</g>
<linearGradient id="SVGID_2_" gradientUnits="userSpaceOnUse" x1="152.1197" y1="139.999" x2="278.5142" y2="262.9149">
	<stop  offset="5.618000e-03" style="stop-color:#B3842A"/>
	<stop  offset="0.045" style="stop-color:#B68930"/>
	<stop  offset="0.0997" style="stop-color:#C09842"/>
	<stop  offset="0.1635" style="stop-color:#D0B060"/>
	<stop  offset="0.2336" style="stop-color:#E6D189"/>
	<stop  offset="0.2416" style="stop-color:#E9D58E"/>
	<stop  offset="0.4101" style="stop-color:#F2EDE2"/>
	<stop  offset="0.6061" style="stop-color:#E0C385"/>
</linearGradient>
<path class="st3" d="M194.81,92.41c-49.21,0-89.1,39.89-89.1,89.1c0,49.21,39.89,89.1,89.1,89.1c49.21,0,89.1-39.89,89.1-89.1
	C283.91,132.31,244.02,92.41,194.81,92.41z M194.81,239.42c-31.98,0-57.91-25.92-57.91-57.91c0-31.98,25.93-57.91,57.91-57.91
	c31.98,0,57.91,25.93,57.91,57.91C252.72,213.5,226.79,239.42,194.81,239.42z"/>
<rect x="10.43" y="69.47" transform="matrix(0.5736 -0.8192 0.8192 0.5736 -33.9226 104.9196)" class="st4" width="146.76" height="31.15"/>
</svg>
